<?xml version="1.0" encoding="UTF-8"?>
<svg width="200px" height="200px" viewBox="0 0 200 200" version="1.1" xmlns="http://www.w3.org/2000/svg" xmlns:xlink="http://www.w3.org/1999/xlink">
    <title>config</title>
    <g id="config" stroke="none" stroke-width="1" fill="none" fill-rule="evenodd">
        <path d="M73,74 C84.5683637,74 94.3721144,81.5552059 97.746178,92.0005432 L181,92 L181,108 L97.7458549,108.000457 C94.3714888,118.445276 84.5679945,126 73,126 C61.4320055,126 51.6285112,118.445276 48.2541451,108.000457 L19,108 L19,92 L48.253822,92.0005432 C51.6278856,81.5552059 61.4316363,74 73,74 Z M73,88 C66.372583,88 61,93.372583 61,100 C61,106.627417 66.372583,112 73,112 C79.627417,112 85,106.627417 85,100 C85,93.372583 79.627417,88 73,88 Z" id="Combined-Shape" fill="#000000" fill-rule="nonzero"></path>
        <path d="M127,19 C138.568364,19 148.372114,26.5552059 151.746178,37.0005432 L181,37 L181,53 L151.745855,53.0004567 C148.371489,63.4452763 138.567995,71 127,71 C115.432005,71 105.628511,63.4452763 102.254145,53.0004567 L19,53 L19,37 L102.253822,37.0005432 C105.627886,26.5552059 115.431636,19 127,19 Z M127,33 C120.372583,33 115,38.372583 115,45 C115,51.627417 120.372583,57 127,57 C133.627417,57 139,51.627417 139,45 C139,38.372583 133.627417,33 127,33 Z" id="Combined-Shape" fill="#000000" fill-rule="nonzero"></path>
        <path d="M127,129 C138.568364,129 148.372114,136.555206 151.746178,147.000543 L181,147 L181,163 L151.745855,163.000457 C148.371489,173.445276 138.567995,181 127,181 C115.432005,181 105.628511,173.445276 102.254145,163.000457 L19,163 L19,147 L102.253822,147.000543 C105.627886,136.555206 115.431636,129 127,129 Z M127,143 C120.372583,143 115,148.372583 115,155 C115,161.627417 120.372583,167 127,167 C133.627417,167 139,161.627417 139,155 C139,148.372583 133.627417,143 127,143 Z" id="Combined-Shape" fill="#000000" fill-rule="nonzero"></path>
    </g>
</svg>